<svg width="894" height="483" viewBox="0 0 894 483" fill="none" xmlns="http://www.w3.org/2000/svg">
<rect width="894" height="483" fill="white"/>
<rect x="209.5" y="40.5" width="199" height="399" fill="white" stroke="black"/>
<path d="M272.83 248H270.614L277.023 230.545H279.205L285.614 248H283.398L278.182 233.307H278.045L272.83 248ZM273.648 241.182H282.58V243.057H273.648V241.182ZM297.332 237.841L295.526 238.352C295.412 238.051 295.244 237.759 295.023 237.474C294.807 237.185 294.511 236.946 294.136 236.759C293.761 236.571 293.281 236.477 292.696 236.477C291.895 236.477 291.227 236.662 290.693 237.031C290.165 237.395 289.901 237.858 289.901 238.42C289.901 238.92 290.082 239.315 290.446 239.605C290.81 239.895 291.378 240.136 292.151 240.33L294.094 240.807C295.264 241.091 296.136 241.526 296.71 242.111C297.284 242.69 297.571 243.437 297.571 244.352C297.571 245.102 297.355 245.773 296.923 246.364C296.497 246.955 295.901 247.42 295.134 247.761C294.366 248.102 293.474 248.273 292.457 248.273C291.122 248.273 290.017 247.983 289.142 247.403C288.267 246.824 287.713 245.977 287.48 244.864L289.389 244.386C289.571 245.091 289.915 245.619 290.42 245.972C290.932 246.324 291.599 246.5 292.423 246.5C293.361 246.5 294.105 246.301 294.656 245.903C295.213 245.5 295.491 245.017 295.491 244.455C295.491 244 295.332 243.619 295.014 243.312C294.696 243 294.207 242.767 293.548 242.614L291.366 242.102C290.168 241.818 289.287 241.378 288.724 240.781C288.168 240.179 287.889 239.426 287.889 238.523C287.889 237.784 288.097 237.131 288.511 236.562C288.932 235.994 289.503 235.548 290.224 235.224C290.952 234.901 291.776 234.739 292.696 234.739C293.991 234.739 295.009 235.023 295.747 235.591C296.491 236.159 297.02 236.909 297.332 237.841ZM309.871 237.841L308.065 238.352C307.951 238.051 307.783 237.759 307.562 237.474C307.346 237.185 307.05 236.946 306.675 236.759C306.3 236.571 305.82 236.477 305.235 236.477C304.434 236.477 303.766 236.662 303.232 237.031C302.704 237.395 302.44 237.858 302.44 238.42C302.44 238.92 302.621 239.315 302.985 239.605C303.349 239.895 303.917 240.136 304.69 240.33L306.633 240.807C307.803 241.091 308.675 241.526 309.249 242.111C309.823 242.69 310.11 243.437 310.11 244.352C310.11 245.102 309.894 245.773 309.462 246.364C309.036 246.955 308.44 247.42 307.673 247.761C306.906 248.102 306.013 248.273 304.996 248.273C303.661 248.273 302.556 247.983 301.681 247.403C300.806 246.824 300.252 245.977 300.019 244.864L301.928 244.386C302.11 245.091 302.454 245.619 302.96 245.972C303.471 246.324 304.138 246.5 304.962 246.5C305.9 246.5 306.644 246.301 307.195 245.903C307.752 245.5 308.031 245.017 308.031 244.455C308.031 244 307.871 243.619 307.553 243.312C307.235 243 306.746 242.767 306.087 242.614L303.906 242.102C302.707 241.818 301.826 241.378 301.263 240.781C300.707 240.179 300.428 239.426 300.428 238.523C300.428 237.784 300.636 237.131 301.05 236.562C301.471 235.994 302.042 235.548 302.763 235.224C303.491 234.901 304.315 234.739 305.235 234.739C306.531 234.739 307.548 235.023 308.286 235.591C309.031 236.159 309.559 236.909 309.871 237.841ZM318.626 248.273C317.365 248.273 316.277 247.994 315.362 247.438C314.453 246.875 313.751 246.091 313.257 245.085C312.768 244.074 312.524 242.898 312.524 241.557C312.524 240.216 312.768 239.034 313.257 238.011C313.751 236.983 314.439 236.182 315.32 235.608C316.206 235.028 317.24 234.739 318.422 234.739C319.104 234.739 319.777 234.852 320.442 235.08C321.107 235.307 321.712 235.676 322.257 236.188C322.803 236.693 323.237 237.364 323.561 238.199C323.885 239.034 324.047 240.062 324.047 241.284V242.136H313.956V240.398H322.001C322.001 239.659 321.854 239 321.558 238.42C321.268 237.841 320.854 237.384 320.314 237.048C319.78 236.713 319.149 236.545 318.422 236.545C317.621 236.545 316.928 236.744 316.342 237.142C315.763 237.534 315.317 238.045 315.004 238.676C314.692 239.307 314.536 239.983 314.536 240.705V241.864C314.536 242.852 314.706 243.69 315.047 244.378C315.393 245.06 315.874 245.58 316.487 245.938C317.101 246.29 317.814 246.466 318.626 246.466C319.155 246.466 319.632 246.392 320.058 246.244C320.49 246.091 320.862 245.864 321.175 245.562C321.487 245.256 321.729 244.875 321.899 244.42L323.842 244.966C323.638 245.625 323.294 246.205 322.811 246.705C322.328 247.199 321.732 247.585 321.021 247.864C320.311 248.136 319.513 248.273 318.626 248.273ZM332.8 234.909V236.614H326.016V234.909H332.8ZM327.993 231.773H330.004V244.25C330.004 244.818 330.087 245.244 330.251 245.528C330.422 245.807 330.638 245.994 330.899 246.091C331.166 246.182 331.447 246.227 331.743 246.227C331.964 246.227 332.146 246.216 332.288 246.193C332.43 246.165 332.544 246.142 332.629 246.125L333.038 247.932C332.902 247.983 332.712 248.034 332.467 248.085C332.223 248.142 331.913 248.17 331.538 248.17C330.97 248.17 330.413 248.048 329.868 247.804C329.328 247.56 328.879 247.188 328.521 246.688C328.169 246.188 327.993 245.557 327.993 244.795V231.773ZM344.864 237.841L343.057 238.352C342.943 238.051 342.776 237.759 342.554 237.474C342.338 237.185 342.043 236.946 341.668 236.759C341.293 236.571 340.812 236.477 340.227 236.477C339.426 236.477 338.759 236.662 338.224 237.031C337.696 237.395 337.432 237.858 337.432 238.42C337.432 238.92 337.614 239.315 337.977 239.605C338.341 239.895 338.909 240.136 339.682 240.33L341.625 240.807C342.795 241.091 343.668 241.526 344.241 242.111C344.815 242.69 345.102 243.437 345.102 244.352C345.102 245.102 344.886 245.773 344.455 246.364C344.028 246.955 343.432 247.42 342.665 247.761C341.898 248.102 341.006 248.273 339.989 248.273C338.653 248.273 337.548 247.983 336.673 247.403C335.798 246.824 335.244 245.977 335.011 244.864L336.92 244.386C337.102 245.091 337.446 245.619 337.952 245.972C338.463 246.324 339.131 246.5 339.955 246.5C340.892 246.5 341.636 246.301 342.188 245.903C342.744 245.5 343.023 245.017 343.023 244.455C343.023 244 342.864 243.619 342.545 243.312C342.227 243 341.739 242.767 341.08 242.614L338.898 242.102C337.699 241.818 336.818 241.378 336.256 240.781C335.699 240.179 335.42 239.426 335.42 238.523C335.42 237.784 335.628 237.131 336.043 236.562C336.463 235.994 337.034 235.548 337.756 235.224C338.483 234.901 339.307 234.739 340.227 234.739C341.523 234.739 342.54 235.023 343.278 235.591C344.023 236.159 344.551 236.909 344.864 237.841Z" fill="black"/>
<rect x="482.5" y="299.5" width="199" height="140" fill="white" stroke="black"/>
<path d="M548.114 378V360.545H558.648V362.42H550.227V368.318H558.102V370.193H550.227V376.125H558.784V378H548.114ZM571.116 382.909V375.989H570.946C570.798 376.227 570.588 376.528 570.315 376.892C570.043 377.25 569.653 377.571 569.148 377.855C568.642 378.134 567.969 378.273 567.128 378.273C566.037 378.273 565.074 377.997 564.239 377.446C563.403 376.889 562.75 376.105 562.278 375.094C561.807 374.077 561.571 372.875 561.571 371.489C561.571 370.114 561.807 368.92 562.278 367.909C562.75 366.898 563.406 366.116 564.247 365.565C565.088 365.014 566.06 364.739 567.162 364.739C568.014 364.739 568.688 364.881 569.182 365.165C569.682 365.443 570.063 365.761 570.324 366.119C570.591 366.472 570.798 366.761 570.946 366.989H571.185V364.909H573.128V382.909H571.116ZM567.401 376.466C568.207 376.466 568.889 376.256 569.446 375.835C570.003 375.409 570.426 374.821 570.716 374.071C571.006 373.315 571.151 372.443 571.151 371.455C571.151 370.477 571.009 369.622 570.724 368.889C570.44 368.151 570.02 367.577 569.463 367.168C568.906 366.753 568.219 366.545 567.401 366.545C566.548 366.545 565.838 366.764 565.27 367.202C564.707 367.634 564.284 368.222 564 368.966C563.722 369.705 563.582 370.534 563.582 371.455C563.582 372.386 563.724 373.233 564.009 373.994C564.298 374.75 564.724 375.352 565.287 375.801C565.855 376.244 566.56 376.466 567.401 376.466ZM585.06 372.648V364.909H587.071V378H585.06V375.784H584.923C584.616 376.449 584.139 377.014 583.491 377.48C582.844 377.94 582.026 378.17 581.037 378.17C580.219 378.17 579.491 377.991 578.855 377.634C578.219 377.27 577.719 376.724 577.355 375.997C576.991 375.264 576.81 374.341 576.81 373.227V364.909H578.821V373.091C578.821 374.045 579.088 374.807 579.622 375.375C580.162 375.943 580.849 376.227 581.685 376.227C582.185 376.227 582.693 376.099 583.21 375.844C583.733 375.588 584.17 375.196 584.523 374.668C584.881 374.139 585.06 373.466 585.06 372.648ZM590.755 378V364.909H592.766V378H590.755ZM591.778 362.727C591.386 362.727 591.048 362.594 590.763 362.327C590.485 362.06 590.346 361.739 590.346 361.364C590.346 360.989 590.485 360.668 590.763 360.401C591.048 360.134 591.386 360 591.778 360C592.17 360 592.505 360.134 592.783 360.401C593.067 360.668 593.21 360.989 593.21 361.364C593.21 361.739 593.067 362.06 592.783 362.327C592.505 362.594 592.17 362.727 591.778 362.727ZM602.143 364.909V366.614H595.359V364.909H602.143ZM597.337 361.773H599.348V374.25C599.348 374.818 599.43 375.244 599.595 375.528C599.766 375.807 599.982 375.994 600.243 376.091C600.51 376.182 600.791 376.227 601.087 376.227C601.308 376.227 601.49 376.216 601.632 376.193C601.774 376.165 601.888 376.142 601.973 376.125L602.382 377.932C602.246 377.983 602.055 378.034 601.811 378.085C601.567 378.142 601.257 378.17 600.882 378.17C600.314 378.17 599.757 378.048 599.212 377.804C598.672 377.56 598.223 377.188 597.865 376.688C597.513 376.188 597.337 375.557 597.337 374.795V361.773ZM606.464 382.909C606.124 382.909 605.82 382.881 605.553 382.824C605.286 382.773 605.101 382.722 604.999 382.67L605.51 380.898C605.999 381.023 606.43 381.068 606.805 381.034C607.18 381 607.513 380.832 607.803 380.531C608.098 380.236 608.368 379.756 608.612 379.091L608.987 378.068L604.146 364.909H606.328L609.942 375.341H610.078L613.692 364.909H615.874L610.317 379.909C610.067 380.585 609.757 381.145 609.388 381.588C609.018 382.037 608.589 382.369 608.101 382.585C607.618 382.801 607.072 382.909 606.464 382.909Z" fill="black"/>
<rect x="482.5" y="40.5" width="199" height="258" fill="white" stroke="black"/>
<path d="M529.114 178V160.545H531.227V176.125H539.341V178H529.114ZM542.341 178V164.909H544.352V178H542.341ZM543.364 162.727C542.972 162.727 542.634 162.594 542.349 162.327C542.071 162.06 541.932 161.739 541.932 161.364C541.932 160.989 542.071 160.668 542.349 160.401C542.634 160.134 542.972 160 543.364 160C543.756 160 544.091 160.134 544.369 160.401C544.653 160.668 544.795 160.989 544.795 161.364C544.795 161.739 544.653 162.06 544.369 162.327C544.091 162.594 543.756 162.727 543.364 162.727ZM551.888 178.307C551.059 178.307 550.306 178.151 549.63 177.838C548.954 177.52 548.417 177.062 548.019 176.466C547.621 175.864 547.423 175.136 547.423 174.284C547.423 173.534 547.57 172.926 547.866 172.46C548.161 171.989 548.556 171.619 549.05 171.352C549.545 171.085 550.09 170.886 550.687 170.756C551.289 170.619 551.894 170.511 552.502 170.432C553.298 170.33 553.942 170.253 554.437 170.202C554.937 170.145 555.3 170.051 555.528 169.92C555.761 169.79 555.877 169.562 555.877 169.239V169.17C555.877 168.33 555.647 167.676 555.187 167.21C554.732 166.744 554.042 166.511 553.116 166.511C552.156 166.511 551.403 166.722 550.857 167.142C550.312 167.562 549.928 168.011 549.707 168.489L547.798 167.807C548.138 167.011 548.593 166.392 549.161 165.949C549.735 165.5 550.36 165.187 551.036 165.011C551.718 164.83 552.388 164.739 553.048 164.739C553.468 164.739 553.951 164.79 554.496 164.892C555.048 164.989 555.579 165.19 556.09 165.497C556.607 165.804 557.036 166.267 557.377 166.886C557.718 167.506 557.888 168.335 557.888 169.375V178H555.877V176.227H555.775C555.638 176.511 555.411 176.815 555.093 177.139C554.775 177.463 554.352 177.739 553.823 177.966C553.295 178.193 552.65 178.307 551.888 178.307ZM552.195 176.5C552.991 176.5 553.661 176.344 554.207 176.031C554.758 175.719 555.173 175.315 555.451 174.821C555.735 174.327 555.877 173.807 555.877 173.261V171.42C555.792 171.523 555.604 171.616 555.315 171.702C555.031 171.781 554.701 171.852 554.326 171.915C553.957 171.972 553.596 172.023 553.244 172.068C552.897 172.108 552.616 172.142 552.4 172.17C551.877 172.239 551.388 172.349 550.934 172.503C550.485 172.651 550.121 172.875 549.843 173.176C549.57 173.472 549.434 173.875 549.434 174.386C549.434 175.085 549.692 175.614 550.21 175.972C550.732 176.324 551.394 176.5 552.195 176.5ZM561.832 178V160.545H563.844V166.989H564.014C564.162 166.761 564.366 166.472 564.628 166.119C564.895 165.761 565.276 165.443 565.77 165.165C566.27 164.881 566.946 164.739 567.798 164.739C568.901 164.739 569.872 165.014 570.713 165.565C571.554 166.116 572.21 166.898 572.682 167.909C573.153 168.92 573.389 170.114 573.389 171.489C573.389 172.875 573.153 174.077 572.682 175.094C572.21 176.105 571.557 176.889 570.722 177.446C569.886 177.997 568.923 178.273 567.832 178.273C566.991 178.273 566.318 178.134 565.812 177.855C565.307 177.571 564.918 177.25 564.645 176.892C564.372 176.528 564.162 176.227 564.014 175.989H563.776V178H561.832ZM563.81 171.455C563.81 172.443 563.955 173.315 564.244 174.071C564.534 174.821 564.957 175.409 565.514 175.835C566.071 176.256 566.753 176.466 567.56 176.466C568.401 176.466 569.102 176.244 569.665 175.801C570.233 175.352 570.659 174.75 570.943 173.994C571.233 173.233 571.378 172.386 571.378 171.455C571.378 170.534 571.236 169.705 570.952 168.966C570.673 168.222 570.25 167.634 569.682 167.202C569.119 166.764 568.412 166.545 567.56 166.545C566.741 166.545 566.054 166.753 565.497 167.168C564.94 167.577 564.52 168.151 564.236 168.889C563.952 169.622 563.81 170.477 563.81 171.455ZM576.466 178V164.909H578.477V178H576.466ZM577.489 162.727C577.097 162.727 576.759 162.594 576.474 162.327C576.196 162.06 576.057 161.739 576.057 161.364C576.057 160.989 576.196 160.668 576.474 160.401C576.759 160.134 577.097 160 577.489 160C577.881 160 578.216 160.134 578.494 160.401C578.778 160.668 578.92 160.989 578.92 161.364C578.92 161.739 578.778 162.06 578.494 162.327C578.216 162.594 577.881 162.727 577.489 162.727ZM584.173 160.545V178H582.161V160.545H584.173ZM587.857 178V164.909H589.868V178H587.857ZM588.879 162.727C588.487 162.727 588.149 162.594 587.865 162.327C587.587 162.06 587.447 161.739 587.447 161.364C587.447 160.989 587.587 160.668 587.865 160.401C588.149 160.134 588.487 160 588.879 160C589.271 160 589.607 160.134 589.885 160.401C590.169 160.668 590.311 160.989 590.311 161.364C590.311 161.739 590.169 162.06 589.885 162.327C589.607 162.594 589.271 162.727 588.879 162.727ZM599.245 164.909V166.614H592.461V164.909H599.245ZM594.438 161.773H596.45V174.25C596.45 174.818 596.532 175.244 596.697 175.528C596.867 175.807 597.083 175.994 597.344 176.091C597.612 176.182 597.893 176.227 598.188 176.227C598.41 176.227 598.592 176.216 598.734 176.193C598.876 176.165 598.989 176.142 599.075 176.125L599.484 177.932C599.347 177.983 599.157 178.034 598.913 178.085C598.668 178.142 598.359 178.17 597.984 178.17C597.415 178.17 596.859 178.048 596.313 177.804C595.773 177.56 595.325 177.188 594.967 176.688C594.614 176.188 594.438 175.557 594.438 174.795V161.773ZM602.271 178V164.909H604.282V178H602.271ZM603.293 162.727C602.901 162.727 602.563 162.594 602.279 162.327C602.001 162.06 601.862 161.739 601.862 161.364C601.862 160.989 602.001 160.668 602.279 160.401C602.563 160.134 602.901 160 603.293 160C603.685 160 604.021 160.134 604.299 160.401C604.583 160.668 604.725 160.989 604.725 161.364C604.725 161.739 604.583 162.06 604.299 162.327C604.021 162.594 603.685 162.727 603.293 162.727ZM613.455 178.273C612.193 178.273 611.105 177.994 610.19 177.438C609.281 176.875 608.58 176.091 608.085 175.085C607.597 174.074 607.352 172.898 607.352 171.557C607.352 170.216 607.597 169.034 608.085 168.011C608.58 166.983 609.267 166.182 610.148 165.608C611.034 165.028 612.068 164.739 613.25 164.739C613.932 164.739 614.605 164.852 615.27 165.08C615.935 165.307 616.54 165.676 617.085 166.188C617.631 166.693 618.065 167.364 618.389 168.199C618.713 169.034 618.875 170.062 618.875 171.284V172.136H608.784V170.398H616.83C616.83 169.659 616.682 169 616.386 168.42C616.097 167.841 615.682 167.384 615.142 167.048C614.608 166.713 613.977 166.545 613.25 166.545C612.449 166.545 611.756 166.744 611.17 167.142C610.591 167.534 610.145 168.045 609.832 168.676C609.52 169.307 609.364 169.983 609.364 170.705V171.864C609.364 172.852 609.534 173.69 609.875 174.378C610.222 175.06 610.702 175.58 611.315 175.938C611.929 176.29 612.642 176.466 613.455 176.466C613.983 176.466 614.46 176.392 614.886 176.244C615.318 176.091 615.69 175.864 616.003 175.562C616.315 175.256 616.557 174.875 616.727 174.42L618.67 174.966C618.466 175.625 618.122 176.205 617.639 176.705C617.156 177.199 616.56 177.585 615.849 177.864C615.139 178.136 614.341 178.273 613.455 178.273ZM631.207 167.841L629.401 168.352C629.287 168.051 629.119 167.759 628.898 167.474C628.682 167.185 628.386 166.946 628.011 166.759C627.636 166.571 627.156 166.477 626.571 166.477C625.77 166.477 625.102 166.662 624.568 167.031C624.04 167.395 623.776 167.858 623.776 168.42C623.776 168.92 623.957 169.315 624.321 169.605C624.685 169.895 625.253 170.136 626.026 170.33L627.969 170.807C629.139 171.091 630.011 171.526 630.585 172.111C631.159 172.69 631.446 173.437 631.446 174.352C631.446 175.102 631.23 175.773 630.798 176.364C630.372 176.955 629.776 177.42 629.009 177.761C628.241 178.102 627.349 178.273 626.332 178.273C624.997 178.273 623.892 177.983 623.017 177.403C622.142 176.824 621.588 175.977 621.355 174.864L623.264 174.386C623.446 175.091 623.79 175.619 624.295 175.972C624.807 176.324 625.474 176.5 626.298 176.5C627.236 176.5 627.98 176.301 628.531 175.903C629.088 175.5 629.366 175.017 629.366 174.455C629.366 174 629.207 173.619 628.889 173.312C628.571 173 628.082 172.767 627.423 172.614L625.241 172.102C624.043 171.818 623.162 171.378 622.599 170.781C622.043 170.179 621.764 169.426 621.764 168.523C621.764 167.784 621.972 167.131 622.386 166.562C622.807 165.994 623.378 165.548 624.099 165.224C624.827 164.901 625.651 164.739 626.571 164.739C627.866 164.739 628.884 165.023 629.622 165.591C630.366 166.159 630.895 166.909 631.207 167.841Z" fill="black"/>
</svg>
